<?xml version="1.0" encoding="UTF-8" standalone="no"?>
<!-- Created with Inkscape (http://www.inkscape.org/) -->

<svg
   width="210mm"
   height="297mm"
   viewBox="0 0 210 297"
   version="1.1"
   id="svg5"
   xml:space="preserve"
   inkscape:version="1.2.2 (732a01da63, 2022-12-09)"
   sodipodi:docname="JS.svg"
   xmlns:inkscape="http://www.inkscape.org/namespaces/inkscape"
   xmlns:sodipodi="http://sodipodi.sourceforge.net/DTD/sodipodi-0.dtd"
   xmlns="http://www.w3.org/2000/svg"
   xmlns:svg="http://www.w3.org/2000/svg"><sodipodi:namedview
     id="namedview7"
     pagecolor="#ffffff"
     bordercolor="#000000"
     borderopacity="0.25"
     inkscape:showpageshadow="2"
     inkscape:pageopacity="0.0"
     inkscape:pagecheckerboard="0"
     inkscape:deskcolor="#d1d1d1"
     inkscape:document-units="mm"
     showgrid="false"
     inkscape:zoom="1.0289025"
     inkscape:cx="107.39598"
     inkscape:cy="394.10925"
     inkscape:window-width="1920"
     inkscape:window-height="1112"
     inkscape:window-x="-8"
     inkscape:window-y="-8"
     inkscape:window-maximized="1"
     inkscape:current-layer="layer1" /><defs
     id="defs2"><rect
       x="40.820193"
       y="57.342653"
       width="52.483099"
       height="43.735922"
       id="rect1207" /></defs><g
     inkscape:label="Calque 1"
     inkscape:groupmode="layer"
     id="layer1"><rect
       style="fill:#000000;stroke-width:0.264583;fill-opacity:0"
       id="rect249"
       width="83.574081"
       height="93.088661"
       x="87.945648"
       y="19.029177" /><g
       id="g1270"
       inkscape:export-filename="JS.svg"
       inkscape:export-xdpi="96"
       inkscape:export-ydpi="96"><g
         id="g5193"
         transform="matrix(0.27332496,0,0,0.27332496,41.157308,63.625971)"><path
           id="path5113"
           class="st0"
           d="M 18.8,375.4 -5,113.4 251.4,113.5 227.8,375.2 123,404.8 Z m 189.7,-14.3 19.9,-224.4 h -105 l 0.8,247.5 z M 113.6,169.6 H 88.1 l -0.3,134.3 -49.5,-13.5 0.1,30.7 75.2,20.3 z" /><path
           id="path5159"
           class="st1"
           d="m 105.2,338.9 c -3.3,-1 -19.6,-5.4 -36.2,-9.9 l -30.1,-8.1 v -15.1 c 0,-14.8 0,-15.1 1.5,-14.6 0.8,0.3 11.8,3.3 24.4,6.8 l 22.9,6.3 0.2,-67 0.2,-67 h 25 v 85.2 c 0,67.7 -0.2,85.2 -0.9,85.2 -0.5,-0.1 -3.7,-0.9 -7,-1.8 z" /><path
           id="path5157"
           class="st2"
           d="m 38.4,321.1 -0.1,-30.7 c 0,0 31.6,8.9 49.5,13.5 l 0.3,-134.2 h 25.5 v 171.7 z" /><path
           id="path5117"
           class="st3"
           d="m 123.4,136.6 h 105 L 208.5,361 123.4,384.1 Z m 79.7,186.8 6.9,-83.9 -51,5.7 v -44.8 l 54.4,-0.2 2.2,-30.6 -82.1,0.4 1.1,111.4 49.6,-8.5 -0.7,24.8 -50,13.3 0.5,30.4 z" /></g><text
         xml:space="preserve"
         transform="matrix(0.80226019,0,0,0.9236744,28.095824,21.091615)"
         id="text1205"
         style="font-style:normal;font-variant:normal;font-weight:normal;font-stretch:normal;font-size:22.9494px;font-family:sans-serif;-inkscape-font-specification:sans-serif;white-space:pre;shape-inside:url(#rect1207);display:inline;fill:#000000;fill-opacity:0.980263;stroke:#000000;stroke-width:1.51181;stroke-dasharray:none;stroke-opacity:1"><tspan
           x="40.820312"
           y="78.27923"
           id="tspan1543">J S</tspan></text></g></g><style
     id="style21">.st0{fill:#d4b830}.st1,.st2{opacity:.986;fill:#ebebeb;fill-opacity:0;enable-background:new}.st2{fill-opacity:.9216}.st3{fill:#fdd83c}</style></svg>
